# xmcd
#
# Track frame offsets: 
#        150
#        13474
#        26093
#        36831
#        49529
#        63450
#        74421
#        89988
#        106204
#        119120
#        130561
#        144468
#        156088
#        169423
#        180495
#        191792
#        202152
#        215782
#        230173
#        243001
#        259587
#        272499
#        285198
#        297363
#        308970
#
# Disc length: 4264 seconds
#
# Revision: 0
# Processed by: cddbd v1.5.2PL0 Copyright (c) Steve Scherf et al.
# Submitted via: ExactAudioCopy v0.99pb5
#
DISCID=8810a619
DTITLE=B.B. King - Best Of B.B.King 1949-1956 CD-2
DYEAR=1900
DGENRE=Blues
TTITLE0=Woke Up This Morning
TTITLE1=Boogie Woogie Woman
TTITLE2=Fine Looking Woman
TTITLE3=Please Love Me
TTITLE4=Why Did You Leave Me
TTITLE5=I Gotta Find My Baby
TTITLE6=My Own Fault Darlin'
TTITLE7=She Don't Move Me No More
TTITLE8=Some Day, Somewhere
TTITLE9=You Didn't Want Me
TTITLE10=You Know I Love You
TTITLE11=Shae It Up and Go
TTITLE12=Story From My Heart and Soul
TTITLE13=B. B. Blues
TTITLE14=She's Dynamite
TTITLE15=That Ain't the Way to Do it
TTITLE16=Three O'Clock Blues
TTITLE17=B.B's Boogie
TTITLE18=Mistreated Woman
TTITLE19=The Other Night Blues
TTITLE20=Walkin' and Cryin'
TTITLE21=Got the Blues
TTITLE22=Miss Martha King
TTITLE23=Take a Swing With Me
TTITLE24=When Your Baby Packs Up and Goes
EXTD=
EXTT0=
EXTT1=
EXTT2=
EXTT3=
EXTT4=
EXTT5=
EXTT6=
EXTT7=
EXTT8=
EXTT9=
EXTT10=
EXTT11=
EXTT12=
EXTT13=
EXTT14=
EXTT15=
EXTT16=
EXTT17=
EXTT18=
EXTT19=
EXTT20=
EXTT21=
EXTT22=
EXTT23=
EXTT24=
PLAYORDER=
